# xmcd
#
# Track frame offsets:
#	150
#	14107
#	30433
#	48490
#	64535
#	76306
#	94533
#	111927
#	126231
#	142412
#	160103
#	172174
#	186879
#	204689
#	216614
#
# Disc length: 3078 seconds
#
# Revision: 1
# Processed by: cddbd v1.5.2PL0 Copyright (c) Steve Scherf et al.
# Submitted via: audiograbber 1.83.01
#
DISCID=e20c040f
DTITLE=Various Artist - Hot Hits Country Volume 94
DYEAR=1900
DGENRE=Country
TTITLE0=Alan Jackson - Pop A Top
TTITLE1=Kenny Chesney - She Thinks My Tractor's Sexy
TTITLE2=Alabama - Small Stuff
TTITLE3=Lonestar - Smile
TTITLE4=Sherrie Austin - Little Bird
TTITLE5=Paul Brandt - It's A Beautiful Thing
TTITLE6=Lee Ann Womack - Don't Lie To Me
TTITLE7=Aaron Tippin - What This Country Needs
TTITLE8=Keith Harling - Bring It On
TTITLE9=T. Graham Brown - Memphis Women and Chicken
TTITLE10=Alecia Elliot - I'm Diggin' It
TTITLE11=Lisa Angelle - I Wear Your Love
TTITLE12=Byran White - God Gave Me You
TTITLE13=Brooks and Dunn - Beer Thirty
TTITLE14=Blind Mice - After Awhile
EXTD=
EXTT0=
EXTT1=
EXTT2=
EXTT3=
EXTT4=
EXTT5=
EXTT6=
EXTT7=
EXTT8=
EXTT9=
EXTT10=
EXTT11=
EXTT12=
EXTT13=
EXTT14=
PLAYORDER=
